<svg width="515" height="90" viewBox="0 0 515 90" fill="none" xmlns="http://www.w3.org/2000/svg">
<path d="M13.9325 7.05339H13.8855V7.00635L13.9325 7.05339Z" fill="#121212"/>
<path d="M6.9405 0.0559082L13.8874 7.00579H0V0.0559082H6.9405Z" fill="#121212"/>
<path d="M63.1366 22.1864V35.4757H56.2078V22.1864H34.7081L27.7793 15.2482V7.0541H13.9344L13.8855 7.00518V0H34.7081V15.2482H56.2078L63.1366 22.1864Z" fill="#121212"/>
<path d="M13.8855 7.05396H13.9344L20.8324 13.9485V35.5118H13.8855V7.05396Z" fill="#121212"/>
<path d="M13.9325 7.05339H13.8855V7.00635L13.9325 7.05339Z" fill="#121212"/>
<path d="M105.512 28.5323V35.4757H77.0297L70.0881 28.5323V21.2346H77.0297V28.5323H105.512Z" fill="#121212"/>
<path d="M105.508 0H77.0251V6.94349H105.508V0Z" fill="#121212"/>
<path d="M105.512 14.2911V21.2357H77.0297L70.0881 14.2911V6.94458H77.0297V14.2911H105.512Z" fill="#121212"/>
<path d="M34.7071 22.1877H27.7783V35.4771H34.7071V22.1877Z" fill="#121212"/>
<path d="M63.1395 0.0561523H56.2107V15.2491H63.1395V0.0561523Z" fill="#121212"/>
<path d="M192.504 17.6211H174.892V89.9998H192.504V17.6211Z" fill="#121212"/>
<path d="M264.713 17.6209V89.9996H247.101V17.6209H192.489V0H247.101L264.713 17.6209Z" fill="#121212"/>
<path d="M372.179 0H299.954V17.6198H372.179V0Z" fill="#121212"/>
<path d="M299.947 61.9441H282.335V89.9999H299.947V61.9441Z" fill="#121212"/>
<path d="M299.947 17.6211V44.3231H354.559V61.944H299.947L282.335 44.3231V17.6211H299.947Z" fill="#121212"/>
<path d="M157.612 35.5117H140V89.9994H157.612V35.5117Z" fill="#121212"/>
<path d="M157.262 0V35.5119L139.649 17.8921V0H157.262Z" fill="#121212"/>
<path d="M442.613 17.6213H425.001V90H442.613V17.6213Z" fill="#121212"/>
<path d="M514.845 17.6209V89.9996H497.232V17.6209H442.62V0H497.232L514.845 17.6209Z" fill="#121212"/>
<path d="M407.389 35.5117H389.777V89.9994H407.389V35.5117Z" fill="#121212"/>
<path d="M407.389 0V35.5119L389.777 17.8921V0H407.389Z" fill="#121212"/>
</svg>
